G04*
G04 #@! TF.GenerationSoftware,Altium Limited,Altium Designer,23.4.1 (23)*
G04*
G04 Layer_Color=65535*
%FSLAX44Y44*%
%MOMM*%
G71*
G04*
G04 #@! TF.SameCoordinates,0DB361A5-78C8-4FEA-9A46-C3B996989F44*
G04*
G04*
G04 #@! TF.FilePolarity,Positive*
G04*
G01*
G75*
%ADD10C,0.0000*%
%ADD11C,0.2500*%
%ADD12C,0.2000*%
%ADD13C,0.2540*%
D10*
X315000Y267000D02*
G03*
X315000Y267000I-15000J0D01*
G01*
X545000Y25000D02*
G03*
X545000Y25000I-15000J0D01*
G01*
X40000Y278000D02*
G03*
X40000Y278000I-15000J0D01*
G01*
D11*
X158070Y59330D02*
G03*
X158070Y59330I-1250J0D01*
G01*
X19730Y36000D02*
G03*
X19730Y36000I-1250J0D01*
G01*
X322270Y207010D02*
G03*
X322270Y207010I-1250J0D01*
G01*
D12*
X182570Y66830D02*
X239070D01*
X240820Y24580D02*
Y49080D01*
X182570Y6830D02*
X239070D01*
X180820Y24580D02*
Y49080D01*
X293970Y145680D02*
Y147680D01*
X305470Y145680D02*
Y147680D01*
X25230Y59500D02*
X99230D01*
Y2000D02*
Y59500D01*
X25230Y2000D02*
X99230D01*
X25230D02*
Y59500D01*
X331020Y215260D02*
Y282660D01*
Y26160D02*
Y33660D01*
X487170Y26160D02*
X512520D01*
X331020D02*
X356370D01*
X512520Y215260D02*
Y282660D01*
Y26160D02*
Y33660D01*
X331020Y282660D02*
X512520D01*
X114570Y272450D02*
X116570D01*
X114570Y260950D02*
X116570D01*
X69480Y272450D02*
X71480D01*
X69480Y260950D02*
X71480D01*
X112068Y44621D02*
X140189D01*
X112068Y26499D02*
X140189D01*
D13*
X1540Y72642D02*
Y244643D01*
X281540Y72642D02*
Y244643D01*
X1540D02*
X281540D01*
X1540Y72642D02*
X281540D01*
X167129Y89150D02*
X164590Y91689D01*
X159511D01*
X156972Y89150D01*
Y86611D01*
X159511Y84072D01*
X164590D01*
X167129Y81532D01*
Y78993D01*
X164590Y76454D01*
X159511D01*
X156972Y78993D01*
X172207Y91689D02*
Y76454D01*
X177285Y81532D01*
X182364Y76454D01*
Y91689D01*
X187442Y76454D02*
X192521D01*
X189981D01*
Y91689D01*
X187442Y89150D01*
X2794Y253535D02*
Y268770D01*
X7872Y263691D01*
X12951Y268770D01*
Y253535D01*
X28186Y266230D02*
X25647Y268770D01*
X20568D01*
X18029Y266230D01*
Y263691D01*
X20568Y261152D01*
X25647D01*
X28186Y258613D01*
Y256074D01*
X25647Y253535D01*
X20568D01*
X18029Y256074D01*
X33264Y266230D02*
X35803Y268770D01*
X40882D01*
X43421Y266230D01*
Y256074D01*
X40882Y253535D01*
X35803D01*
X33264Y256074D01*
Y266230D01*
X100600Y167888D02*
X110757D01*
X105678D01*
Y152653D01*
X115835D02*
Y167888D01*
X123453D01*
X125992Y165348D01*
Y160270D01*
X123453Y157731D01*
X115835D01*
X138688Y152653D02*
Y167888D01*
X131070Y160270D01*
X141227D01*
X146305Y165348D02*
X148844Y167888D01*
X153923D01*
X156462Y165348D01*
Y155192D01*
X153923Y152653D01*
X148844D01*
X146305Y155192D01*
Y165348D01*
X171697Y167888D02*
X161540D01*
Y160270D01*
X166619Y162809D01*
X169158D01*
X171697Y160270D01*
Y155192D01*
X169158Y152653D01*
X164079D01*
X161540Y155192D01*
X186932Y167888D02*
X181854Y165348D01*
X176775Y160270D01*
Y155192D01*
X179315Y152653D01*
X184393D01*
X186932Y155192D01*
Y157731D01*
X184393Y160270D01*
X176775D01*
X156210Y266700D02*
Y281935D01*
X163827D01*
X166367Y279396D01*
Y274317D01*
X163827Y271778D01*
X156210D01*
X171445Y281935D02*
Y266700D01*
Y271778D01*
X181602Y281935D01*
X173984Y274317D01*
X181602Y266700D01*
X186680Y281935D02*
Y266700D01*
X194298D01*
X196837Y269239D01*
Y279396D01*
X194298Y281935D01*
X186680D01*
X217150D02*
Y266700D01*
X224768D01*
X227307Y269239D01*
Y271778D01*
X224768Y274317D01*
X217150D01*
X224768D01*
X227307Y276857D01*
Y279396D01*
X224768Y281935D01*
X217150D01*
X242542D02*
X232385D01*
Y266700D01*
X242542D01*
X232385Y274317D02*
X237464D01*
X247620Y279396D02*
X250160Y281935D01*
X255238D01*
X257777Y279396D01*
Y269239D01*
X255238Y266700D01*
X250160D01*
X247620Y269239D01*
Y279396D01*
X262855Y266700D02*
X267934D01*
X265395D01*
Y281935D01*
X262855Y279396D01*
X293624Y168148D02*
Y183383D01*
X301241D01*
X303781Y180844D01*
Y175765D01*
X301241Y173226D01*
X293624D01*
X298702D02*
X303781Y168148D01*
X308859D02*
X313937D01*
X311398D01*
Y183383D01*
X308859Y180844D01*
X28699Y84323D02*
X23620D01*
X26160D01*
Y71627D01*
X23620Y69088D01*
X21081D01*
X18542Y71627D01*
X33777Y69088D02*
X38855D01*
X36316D01*
Y84323D01*
X33777Y81784D01*
X104394Y282956D02*
Y298191D01*
X112011D01*
X114551Y295652D01*
Y290574D01*
X112011Y288034D01*
X104394D01*
X109472D02*
X114551Y282956D01*
X119629Y295652D02*
X122168Y298191D01*
X127247D01*
X129786Y295652D01*
Y293113D01*
X127247Y290574D01*
X124707D01*
X127247D01*
X129786Y288034D01*
Y285495D01*
X127247Y282956D01*
X122168D01*
X119629Y285495D01*
X59182Y282956D02*
Y298191D01*
X66800D01*
X69339Y295652D01*
Y290574D01*
X66800Y288034D01*
X59182D01*
X64260D02*
X69339Y282956D01*
X84574D02*
X74417D01*
X84574Y293113D01*
Y295652D01*
X82035Y298191D01*
X76956D01*
X74417Y295652D01*
X321056Y292354D02*
Y307589D01*
X326134Y302511D01*
X331213Y307589D01*
Y292354D01*
X336291Y307589D02*
Y292354D01*
X343909D01*
X346448Y294893D01*
Y305050D01*
X343909Y307589D01*
X336291D01*
X351526Y305050D02*
X354065Y307589D01*
X359144D01*
X361683Y305050D01*
Y294893D01*
X359144Y292354D01*
X354065D01*
X351526Y294893D01*
Y305050D01*
X118869Y67052D02*
X116329Y69591D01*
X111251D01*
X108712Y67052D01*
Y56895D01*
X111251Y54356D01*
X116329D01*
X118869Y56895D01*
X134104Y54356D02*
X123947D01*
X134104Y64513D01*
Y67052D01*
X131565Y69591D01*
X126486D01*
X123947Y67052D01*
M02*
