G04*
G04 #@! TF.GenerationSoftware,Altium Limited,Altium Designer,23.4.1 (23)*
G04*
G04 Layer_Color=16711935*
%FSLAX44Y44*%
%MOMM*%
G71*
G04*
G04 #@! TF.SameCoordinates,0DB361A5-78C8-4FEA-9A46-C3B996989F44*
G04*
G04*
G04 #@! TF.FilePolarity,Positive*
G04*
G01*
G75*
%ADD12C,0.2000*%
%ADD36C,0.1000*%
D12*
X180820Y66830D02*
X240820D01*
Y6830D02*
Y66830D01*
X180820Y6830D02*
X240820D01*
X180820D02*
Y66830D01*
X25230Y59500D02*
X99230D01*
Y2000D02*
Y59500D01*
X25230Y2000D02*
X99230D01*
X25230D02*
Y59500D01*
X331020Y26160D02*
Y282660D01*
Y26160D02*
X512520D01*
Y282660D01*
X331020D02*
X512520D01*
X118129Y31560D02*
Y39560D01*
Y31560D02*
X134129D01*
Y39560D01*
X118129D02*
X134129D01*
D36*
X292470Y135680D02*
Y157680D01*
X306970Y135680D02*
Y157680D01*
X292470Y135680D02*
X306970D01*
X292470Y157680D02*
X306970D01*
X104570Y259450D02*
Y273950D01*
X126570Y259450D02*
Y273950D01*
X104570D02*
X126570D01*
X104570Y259450D02*
X126570D01*
X59480D02*
Y273950D01*
X81480Y259450D02*
Y273950D01*
X59480D02*
X81480D01*
X59480Y259450D02*
X81480D01*
M02*
