G04*
G04 #@! TF.GenerationSoftware,Altium Limited,Altium Designer,23.4.1 (23)*
G04*
G04 Layer_Physical_Order=2*
G04 Layer_Color=16711680*
%FSLAX44Y44*%
%MOMM*%
G71*
G04*
G04 #@! TF.SameCoordinates,0DB361A5-78C8-4FEA-9A46-C3B996989F44*
G04*
G04*
G04 #@! TF.FilePolarity,Positive*
G04*
G01*
G75*
%ADD13C,0.2540*%
%ADD21R,1.2084X1.0121*%
%ADD27R,1.5500X1.5500*%
%ADD28C,1.5500*%
%ADD29C,1.0000*%
%ADD30C,2.0000*%
%ADD31R,2.0000X2.0000*%
%ADD32R,0.8721X1.0043*%
G04:AMPARAMS|DCode=33|XSize=1.0043mm|YSize=0.8721mm|CornerRadius=0.4361mm|HoleSize=0mm|Usage=FLASHONLY|Rotation=90.000|XOffset=0mm|YOffset=0mm|HoleType=Round|Shape=RoundedRectangle|*
%AMROUNDEDRECTD33*
21,1,1.0043,0.0000,0,0,90.0*
21,1,0.1322,0.8721,0,0,90.0*
1,1,0.8721,0.0000,0.0661*
1,1,0.8721,0.0000,-0.0661*
1,1,0.8721,0.0000,-0.0661*
1,1,0.8721,0.0000,0.0661*
%
%ADD33ROUNDEDRECTD33*%
G04:AMPARAMS|DCode=34|XSize=1.0043mm|YSize=3.1821mm|CornerRadius=0.4369mm|HoleSize=0mm|Usage=FLASHONLY|Rotation=90.000|XOffset=0mm|YOffset=0mm|HoleType=Round|Shape=RoundedRectangle|*
%AMROUNDEDRECTD34*
21,1,1.0043,2.3084,0,0,90.0*
21,1,0.1306,3.1821,0,0,90.0*
1,1,0.8737,1.1542,0.0653*
1,1,0.8737,1.1542,-0.0653*
1,1,0.8737,-1.1542,-0.0653*
1,1,0.8737,-1.1542,0.0653*
%
%ADD34ROUNDEDRECTD34*%
G36*
X552450Y280670D02*
Y21590D01*
X546284Y15424D01*
X545297Y16233D01*
X545446Y16456D01*
X545544Y16692D01*
X545685Y16904D01*
X546816Y19634D01*
X546866Y19884D01*
X546964Y20119D01*
X547540Y23017D01*
Y23272D01*
X547590Y23523D01*
Y26477D01*
X547540Y26727D01*
Y26983D01*
X546964Y29881D01*
X546866Y30116D01*
X546816Y30366D01*
X545685Y33096D01*
X545544Y33308D01*
X545446Y33544D01*
X543805Y36001D01*
X543624Y36181D01*
X543483Y36393D01*
X541393Y38482D01*
X541181Y38624D01*
X541001Y38805D01*
X538544Y40446D01*
X538308Y40544D01*
X538096Y40685D01*
X535366Y41816D01*
X535116Y41866D01*
X534881Y41964D01*
X531983Y42540D01*
X531727D01*
X531477Y42590D01*
X528523D01*
X528273Y42540D01*
X528017D01*
X525119Y41964D01*
X524884Y41866D01*
X524634Y41816D01*
X521904Y40685D01*
X521692Y40544D01*
X521456Y40446D01*
X518999Y38805D01*
X518819Y38624D01*
X518607Y38482D01*
X516517Y36393D01*
X516376Y36181D01*
X516195Y36001D01*
X514554Y33544D01*
X514456Y33308D01*
X514314Y33096D01*
X513184Y30366D01*
X513134Y30116D01*
X513036Y29881D01*
X512460Y26983D01*
Y26727D01*
X512410Y26477D01*
Y23523D01*
X512460Y23272D01*
Y23017D01*
X513036Y20119D01*
X513134Y19884D01*
X513184Y19634D01*
X514314Y16904D01*
X514456Y16692D01*
X514554Y16456D01*
X516195Y13999D01*
X516376Y13819D01*
X516517Y13607D01*
X518607Y11517D01*
X518819Y11376D01*
X518999Y11195D01*
X521456Y9554D01*
X521692Y9456D01*
X521904Y9315D01*
X524634Y8184D01*
X524884Y8134D01*
X525119Y8036D01*
X528017Y7460D01*
X528273D01*
X528523Y7410D01*
X531477D01*
X531727Y7460D01*
X531983D01*
X534881Y8036D01*
X535116Y8134D01*
X535366Y8184D01*
X538096Y9315D01*
X538308Y9456D01*
X538544Y9554D01*
X538767Y9703D01*
X539576Y8716D01*
X530860Y0D01*
X24130D01*
X5080Y19050D01*
X0D01*
Y279400D01*
X8817Y287727D01*
X9793Y286903D01*
X9554Y286544D01*
X9456Y286308D01*
X9315Y286096D01*
X8184Y283366D01*
X8134Y283116D01*
X8036Y282881D01*
X7460Y279983D01*
Y279727D01*
X7410Y279477D01*
Y276523D01*
X7460Y276272D01*
Y276017D01*
X8036Y273119D01*
X8134Y272884D01*
X8184Y272634D01*
X9315Y269904D01*
X9456Y269692D01*
X9554Y269456D01*
X11195Y266999D01*
X11376Y266819D01*
X11517Y266607D01*
X13607Y264517D01*
X13819Y264376D01*
X13999Y264195D01*
X16456Y262554D01*
X16692Y262456D01*
X16904Y262314D01*
X19634Y261184D01*
X19884Y261134D01*
X20119Y261036D01*
X23017Y260460D01*
X23272D01*
X23523Y260410D01*
X26477D01*
X26727Y260460D01*
X26983D01*
X29881Y261036D01*
X30116Y261134D01*
X30366Y261184D01*
X33096Y262314D01*
X33308Y262456D01*
X33544Y262554D01*
X36001Y264195D01*
X36181Y264376D01*
X36393Y264517D01*
X38482Y266607D01*
X38624Y266819D01*
X38805Y266999D01*
X40446Y269456D01*
X40544Y269692D01*
X40685Y269904D01*
X41816Y272634D01*
X41866Y272884D01*
X41964Y273119D01*
X42540Y276017D01*
Y276272D01*
X42590Y276523D01*
Y279477D01*
X42540Y279727D01*
Y279983D01*
X41964Y282881D01*
X41866Y283116D01*
X41816Y283366D01*
X40685Y286096D01*
X40544Y286308D01*
X40446Y286544D01*
X38805Y289001D01*
X38624Y289181D01*
X38482Y289393D01*
X36393Y291483D01*
X36181Y291624D01*
X36001Y291805D01*
X33544Y293446D01*
X33308Y293544D01*
X33096Y293685D01*
X30366Y294816D01*
X30116Y294866D01*
X29881Y294963D01*
X26983Y295540D01*
X26727D01*
X26477Y295590D01*
X23523D01*
X23272Y295540D01*
X23017D01*
X20119Y294963D01*
X19884Y294866D01*
X19634Y294816D01*
X16904Y293685D01*
X16256Y294753D01*
X22860Y300990D01*
X532130D01*
X552450Y280670D01*
D02*
G37*
%LPC*%
G36*
X301477Y284590D02*
X298523D01*
X298272Y284540D01*
X298017D01*
X295119Y283964D01*
X294884Y283866D01*
X294634Y283816D01*
X291904Y282685D01*
X291692Y282544D01*
X291456Y282446D01*
X288999Y280805D01*
X288819Y280624D01*
X288607Y280483D01*
X286518Y278393D01*
X286376Y278181D01*
X286195Y278001D01*
X284554Y275544D01*
X284456Y275308D01*
X284314Y275096D01*
X283184Y272366D01*
X283134Y272116D01*
X283036Y271881D01*
X282460Y268983D01*
Y268727D01*
X282410Y268477D01*
Y265523D01*
X282460Y265272D01*
Y265017D01*
X283036Y262119D01*
X283134Y261884D01*
X283184Y261634D01*
X284314Y258904D01*
X283305Y258129D01*
X275797Y265637D01*
X274537Y266479D01*
X273050Y266775D01*
X160020D01*
X158533Y266479D01*
X157273Y265637D01*
X46783Y155147D01*
X45941Y153887D01*
X45645Y152400D01*
Y89300D01*
X45845Y88295D01*
Y46290D01*
X39440D01*
Y37270D01*
X60020D01*
Y46290D01*
X53615D01*
Y87491D01*
X118449Y152325D01*
X202861D01*
X212015Y143171D01*
Y138038D01*
X210842Y137552D01*
X205947Y142447D01*
X204687Y143289D01*
X203200Y143585D01*
X183098D01*
X181611Y143289D01*
X180351Y142447D01*
X178863Y140959D01*
X178021Y139699D01*
X177725Y138212D01*
Y130603D01*
X176455Y130350D01*
X176128Y131141D01*
X175022Y132582D01*
X173580Y133688D01*
X171901Y134384D01*
X170100Y134621D01*
X168299Y134384D01*
X166620Y133688D01*
X165178Y132582D01*
X164072Y131141D01*
X163966Y130885D01*
X121920D01*
X120433Y130589D01*
X119173Y129747D01*
X71983Y82557D01*
X71141Y81297D01*
X70845Y79810D01*
Y45612D01*
X70758Y45589D01*
X68412Y44234D01*
X66496Y42318D01*
X65141Y39972D01*
X64440Y37355D01*
Y34645D01*
X65141Y32028D01*
X66496Y29682D01*
X68412Y27766D01*
X70758Y26411D01*
X73375Y25710D01*
X76085D01*
X78702Y26411D01*
X81048Y27766D01*
X82964Y29682D01*
X84319Y32028D01*
X85020Y34645D01*
Y37355D01*
X84319Y39972D01*
X82964Y42318D01*
X81048Y44234D01*
X78702Y45589D01*
X78615Y45612D01*
Y78201D01*
X123529Y123115D01*
X163966D01*
X164072Y122859D01*
X165178Y121418D01*
X166620Y120311D01*
X168299Y119616D01*
X170100Y119379D01*
X171901Y119616D01*
X173580Y120311D01*
X175022Y121418D01*
X176128Y122859D01*
X176455Y123650D01*
X177725Y123398D01*
Y109220D01*
X178021Y107733D01*
X178863Y106473D01*
X187753Y97583D01*
X189013Y96741D01*
X190500Y96445D01*
X232410D01*
X233897Y96741D01*
X235157Y97583D01*
X244391Y106817D01*
X246232D01*
X246506Y106343D01*
X248840Y104008D01*
X251700Y102357D01*
X253033Y102000D01*
Y100685D01*
X251700Y100328D01*
X248840Y98677D01*
X246506Y96342D01*
X244855Y93483D01*
X244000Y90293D01*
Y86992D01*
X244855Y83802D01*
X246506Y80943D01*
X248840Y78608D01*
X251700Y76957D01*
X254889Y76102D01*
X258191D01*
X261380Y76957D01*
X264240Y78608D01*
X266574Y80943D01*
X268225Y83802D01*
X269080Y86992D01*
Y90293D01*
X268225Y93483D01*
X266574Y96342D01*
X264240Y98677D01*
X261380Y100328D01*
X260047Y100685D01*
Y102000D01*
X261380Y102357D01*
X264240Y104008D01*
X266574Y106343D01*
X268225Y109202D01*
X269080Y112392D01*
Y112773D01*
X256540D01*
Y114043D01*
X255270D01*
Y126582D01*
X254889D01*
X251700Y125728D01*
X248840Y124077D01*
X246506Y121742D01*
X244855Y118883D01*
X244000Y115693D01*
Y114586D01*
X242782D01*
X241295Y114291D01*
X240035Y113449D01*
X230801Y104215D01*
X192109D01*
X185495Y110829D01*
Y123108D01*
X186765Y123360D01*
X186972Y122859D01*
X188078Y121418D01*
X189155Y120591D01*
Y115788D01*
X189451Y114301D01*
X190293Y113041D01*
X191781Y111553D01*
X193041Y110711D01*
X194528Y110415D01*
X233462D01*
X234949Y110711D01*
X236209Y111553D01*
X237697Y113041D01*
X238539Y114301D01*
X238835Y115788D01*
Y121581D01*
X246719Y129465D01*
X255270D01*
X256757Y129761D01*
X258017Y130603D01*
X266035Y138622D01*
X266878Y139882D01*
X267173Y141369D01*
Y148609D01*
X271871D01*
Y163811D01*
X267173D01*
Y175025D01*
X285910Y193762D01*
X287180Y193318D01*
Y172560D01*
X287180Y171610D01*
X287180Y170340D01*
Y147260D01*
X287180Y146210D01*
X287180Y144940D01*
Y121760D01*
X287180Y120910D01*
X287180Y119640D01*
Y95410D01*
X312260D01*
Y119640D01*
X312260Y120490D01*
X312260Y121760D01*
Y144940D01*
X312260Y145990D01*
X312260Y147260D01*
Y170340D01*
X312260Y171290D01*
X312260Y172560D01*
Y192397D01*
X313433Y192883D01*
X402383Y103933D01*
X403643Y103091D01*
X405130Y102795D01*
X442180D01*
Y95410D01*
X467260D01*
Y104065D01*
X478676D01*
X479106Y103320D01*
X480510Y101917D01*
X482230Y100924D01*
X484147Y100410D01*
X486133D01*
X488050Y100924D01*
X489770Y101917D01*
X491174Y103320D01*
X492166Y105040D01*
X492680Y106957D01*
Y108943D01*
X492166Y110860D01*
X491174Y112580D01*
X489770Y113983D01*
X488050Y114976D01*
X486133Y115490D01*
X484147D01*
X482230Y114976D01*
X480510Y113983D01*
X479106Y112580D01*
X478676Y111835D01*
X467260D01*
Y119640D01*
X467260Y120490D01*
X467260Y121760D01*
Y129565D01*
X478597D01*
X479057Y128770D01*
X480460Y127367D01*
X482180Y126374D01*
X484097Y125860D01*
X486083D01*
X488000Y126374D01*
X489720Y127367D01*
X491124Y128770D01*
X492116Y130490D01*
X492630Y132407D01*
Y134393D01*
X492116Y136310D01*
X491124Y138030D01*
X489720Y139433D01*
X488000Y140426D01*
X486083Y140940D01*
X484097D01*
X482180Y140426D01*
X480460Y139433D01*
X479057Y138030D01*
X478655Y137335D01*
X467260D01*
Y144940D01*
X467260Y145990D01*
X467260Y147260D01*
Y154865D01*
X478676D01*
X479106Y154120D01*
X480510Y152717D01*
X482230Y151724D01*
X484147Y151210D01*
X486133D01*
X488050Y151724D01*
X489770Y152717D01*
X491174Y154120D01*
X492166Y155840D01*
X492680Y157757D01*
Y159743D01*
X492166Y161660D01*
X491174Y163380D01*
X489770Y164783D01*
X488050Y165776D01*
X486133Y166290D01*
X484147D01*
X482230Y165776D01*
X480510Y164783D01*
X479106Y163380D01*
X478676Y162635D01*
X467260D01*
Y170340D01*
X467260Y171290D01*
X467260Y172560D01*
Y182880D01*
X454720D01*
Y184150D01*
X453450D01*
Y196690D01*
X442180D01*
Y188035D01*
X353399D01*
X291129Y250305D01*
X291904Y251315D01*
X294634Y250184D01*
X294884Y250134D01*
X295119Y250036D01*
X298017Y249460D01*
X298272D01*
X298523Y249410D01*
X301477D01*
X301728Y249460D01*
X301983D01*
X304881Y250036D01*
X305116Y250134D01*
X305366Y250184D01*
X308096Y251315D01*
X308308Y251456D01*
X308544Y251554D01*
X311001Y253195D01*
X311181Y253376D01*
X311393Y253517D01*
X313482Y255607D01*
X313624Y255819D01*
X313805Y255999D01*
X315446Y258456D01*
X315544Y258692D01*
X315685Y258904D01*
X316816Y261634D01*
X316866Y261884D01*
X316964Y262119D01*
X317540Y265017D01*
Y265272D01*
X317590Y265523D01*
Y268477D01*
X317540Y268727D01*
Y268983D01*
X316964Y271881D01*
X316866Y272116D01*
X316816Y272366D01*
X315685Y275096D01*
X315544Y275308D01*
X315446Y275544D01*
X313805Y278001D01*
X313624Y278181D01*
X313482Y278393D01*
X311393Y280483D01*
X311181Y280624D01*
X311001Y280805D01*
X308544Y282446D01*
X308308Y282544D01*
X308096Y282685D01*
X305366Y283816D01*
X305116Y283866D01*
X304881Y283964D01*
X301983Y284540D01*
X301728D01*
X301477Y284590D01*
D02*
G37*
G36*
X511770Y284500D02*
X331770D01*
X330779Y284303D01*
X329939Y283741D01*
X329377Y282901D01*
X329180Y281910D01*
Y220010D01*
X329377Y219019D01*
X329939Y218179D01*
X330779Y217617D01*
X331770Y217420D01*
X511770D01*
X512761Y217617D01*
X513601Y218179D01*
X514163Y219019D01*
X514360Y220010D01*
Y281910D01*
X514163Y282901D01*
X513601Y283741D01*
X512761Y284303D01*
X511770Y284500D01*
D02*
G37*
G36*
X28191Y241182D02*
X24889D01*
X21700Y240328D01*
X18840Y238677D01*
X16506Y236342D01*
X14855Y233483D01*
X14000Y230293D01*
Y226992D01*
X14855Y223802D01*
X16506Y220943D01*
X18840Y218608D01*
X21700Y216957D01*
X24889Y216103D01*
X28191D01*
X31380Y216957D01*
X34240Y218608D01*
X36574Y220943D01*
X38225Y223802D01*
X39080Y226992D01*
Y230293D01*
X38225Y233483D01*
X36574Y236342D01*
X34240Y238677D01*
X31380Y240328D01*
X28191Y241182D01*
D02*
G37*
G36*
X467260Y196690D02*
X455990D01*
Y185420D01*
X467260D01*
Y196690D01*
D02*
G37*
G36*
X258191Y126582D02*
X257810D01*
Y115312D01*
X269080D01*
Y115693D01*
X268225Y118883D01*
X266574Y121742D01*
X264240Y124077D01*
X261380Y125728D01*
X258191Y126582D01*
D02*
G37*
G36*
X28191Y101182D02*
X24889D01*
X21700Y100328D01*
X18840Y98677D01*
X16506Y96342D01*
X14855Y93483D01*
X14000Y90293D01*
Y86992D01*
X14855Y83802D01*
X16506Y80943D01*
X18840Y78608D01*
X21700Y76957D01*
X24889Y76102D01*
X28191D01*
X31380Y76957D01*
X34240Y78608D01*
X36574Y80943D01*
X38225Y83802D01*
X39080Y86992D01*
Y90293D01*
X38225Y93483D01*
X36574Y96342D01*
X34240Y98677D01*
X31380Y100328D01*
X28191Y101182D01*
D02*
G37*
G36*
X60020Y34730D02*
X51000D01*
Y25710D01*
X60020D01*
Y34730D01*
D02*
G37*
G36*
X48460D02*
X39440D01*
Y25710D01*
X48460D01*
Y34730D01*
D02*
G37*
%LPD*%
G36*
X349043Y181403D02*
X350303Y180561D01*
X351790Y180265D01*
X442180D01*
Y172560D01*
X442180Y171610D01*
X442180Y170340D01*
Y147260D01*
X442180Y146210D01*
X442180Y144940D01*
Y121760D01*
X442180Y120910D01*
X442180Y119640D01*
Y110565D01*
X406739D01*
X316597Y200707D01*
X315337Y201549D01*
X313850Y201845D01*
X284615D01*
X283128Y201549D01*
X281868Y200707D01*
X260542Y179381D01*
X259700Y178121D01*
X259404Y176634D01*
Y163811D01*
X248521D01*
Y156210D01*
Y148609D01*
X259404D01*
Y142978D01*
X253661Y137235D01*
X245110D01*
X243623Y136939D01*
X242363Y136097D01*
X232203Y125937D01*
X231361Y124677D01*
X231065Y123190D01*
Y118185D01*
X222840D01*
X222801Y119439D01*
X222801D01*
Y125730D01*
X215900D01*
X208999D01*
Y119439D01*
X208999D01*
X208960Y118185D01*
X196925D01*
Y120653D01*
X197922Y121418D01*
X199028Y122859D01*
X199723Y124538D01*
X199960Y126339D01*
Y127661D01*
X199723Y129462D01*
X199028Y131141D01*
X197922Y132582D01*
X196480Y133688D01*
X194801Y134384D01*
X193575Y134545D01*
X193658Y135815D01*
X201591D01*
X208999Y128407D01*
Y128270D01*
X215900D01*
X222801D01*
Y134562D01*
X219785D01*
Y143171D01*
X228939Y152325D01*
X238669D01*
Y148609D01*
X245981D01*
Y156210D01*
Y163811D01*
X238669D01*
Y160095D01*
X227330D01*
X225843Y159799D01*
X224583Y158957D01*
X215900Y150274D01*
X207217Y158957D01*
X205957Y159799D01*
X204470Y160095D01*
X116840D01*
X115353Y159799D01*
X114093Y158957D01*
X54588Y99452D01*
X53415Y99938D01*
Y150791D01*
X161629Y259005D01*
X271441D01*
X349043Y181403D01*
D02*
G37*
%LPC*%
G36*
X258191Y241182D02*
X254889D01*
X251700Y240328D01*
X248840Y238677D01*
X246506Y236342D01*
X244855Y233483D01*
X244000Y230293D01*
Y226992D01*
X244855Y223802D01*
X246506Y220943D01*
X248840Y218608D01*
X251700Y216957D01*
X253033Y216600D01*
Y215285D01*
X251700Y214928D01*
X248840Y213277D01*
X246506Y210942D01*
X244855Y208083D01*
X244000Y204893D01*
Y201592D01*
X244855Y198402D01*
X246506Y195543D01*
X248840Y193208D01*
X251700Y191557D01*
X254889Y190702D01*
X258191D01*
X261380Y191557D01*
X264240Y193208D01*
X266574Y195543D01*
X268225Y198402D01*
X269080Y201592D01*
Y204893D01*
X268225Y208083D01*
X266574Y210942D01*
X264240Y213277D01*
X261380Y214928D01*
X260047Y215285D01*
Y216600D01*
X261380Y216957D01*
X264240Y218608D01*
X266574Y220943D01*
X268225Y223802D01*
X269080Y226992D01*
Y230293D01*
X268225Y233483D01*
X266574Y236342D01*
X264240Y238677D01*
X261380Y240328D01*
X258191Y241182D01*
D02*
G37*
G36*
X204542Y200521D02*
X181458D01*
X179655Y200284D01*
X177974Y199587D01*
X176531Y198480D01*
X175423Y197037D01*
X174727Y195356D01*
X174490Y193553D01*
Y192247D01*
X174727Y190444D01*
X175423Y188763D01*
X176531Y187320D01*
X177974Y186213D01*
X179655Y185516D01*
X181458Y185279D01*
X204542D01*
X206346Y185516D01*
X208026Y186213D01*
X209469Y187320D01*
X210577Y188763D01*
X211273Y190444D01*
X211510Y192247D01*
Y193553D01*
X211273Y195356D01*
X210577Y197037D01*
X209469Y198480D01*
X208026Y199587D01*
X206346Y200284D01*
X204542Y200521D01*
D02*
G37*
%LPD*%
D13*
X160020Y262890D02*
X273050D01*
X49530Y89300D02*
Y152400D01*
X160020Y262890D01*
X454720Y107950D02*
X485140D01*
X263289Y176634D02*
X284615Y197960D01*
X313850D01*
X263289Y141369D02*
Y176634D01*
X485040Y133450D02*
X485140Y133350D01*
X454720Y133450D02*
X485040D01*
X234950Y115788D02*
Y123190D01*
X193040Y115788D02*
Y126960D01*
X233462Y114300D02*
X234950Y115788D01*
X193040D02*
X194528Y114300D01*
X233462D01*
X215900Y127661D02*
Y144780D01*
X181610Y109220D02*
Y138212D01*
X215900Y127000D02*
Y127661D01*
X212809Y130751D02*
X215900Y127661D01*
X212148Y130751D02*
X212809D01*
X203200Y139700D02*
X212148Y130751D01*
X183098Y139700D02*
X203200D01*
X181610Y138212D02*
X183098Y139700D01*
X190500Y100330D02*
X232410D01*
X181610Y109220D02*
X190500Y100330D01*
X253199Y110702D02*
X256540Y114043D01*
X242782Y110702D02*
X253199D01*
X232410Y100330D02*
X242782Y110702D01*
X255270Y133350D02*
X263289Y141369D01*
X234950Y123190D02*
X245110Y133350D01*
X255270D01*
X454720Y158750D02*
X485140D01*
X49530Y89300D02*
X49730Y89100D01*
X351790Y184150D02*
X454720D01*
X273050Y262890D02*
X351790Y184150D01*
X453450Y106680D02*
X454720Y107950D01*
X405130Y106680D02*
X453450D01*
X313850Y197960D02*
X405130Y106680D01*
X193000Y127000D02*
X193040Y126960D01*
X227330Y156210D02*
X247251D01*
X215900Y144780D02*
X227330Y156210D01*
X116840D02*
X204470D01*
X215900Y144780D01*
X49730Y36000D02*
Y89100D01*
X116840Y156210D01*
X121920Y127000D02*
X170100D01*
X74730Y79810D02*
X121920Y127000D01*
X74730Y36000D02*
Y79810D01*
D21*
X263289Y156210D02*
D03*
X247251D02*
D03*
D27*
X49730Y36000D02*
D03*
D28*
X74730D02*
D03*
D29*
X485140Y107950D02*
D03*
X485090Y133400D02*
D03*
X485140Y158750D02*
D03*
D30*
X256540Y203242D02*
D03*
X26540Y88643D02*
D03*
Y228643D02*
D03*
X256540D02*
D03*
Y88643D02*
D03*
Y114043D02*
D03*
D31*
X299720Y184150D02*
D03*
Y158750D02*
D03*
Y133450D02*
D03*
Y107950D02*
D03*
X454720D02*
D03*
Y133450D02*
D03*
Y158750D02*
D03*
Y184150D02*
D03*
D32*
X215900Y127000D02*
D03*
D33*
X193000D02*
D03*
X170100D02*
D03*
D34*
X193000Y192900D02*
D03*
M02*
