G04*
G04 #@! TF.GenerationSoftware,Altium Limited,Altium Designer,23.4.1 (23)*
G04*
G04 Layer_Physical_Order=1*
G04 Layer_Color=255*
%FSLAX44Y44*%
%MOMM*%
G71*
G04*
G04 #@! TF.SameCoordinates,0DB361A5-78C8-4FEA-9A46-C3B996989F44*
G04*
G04*
G04 #@! TF.FilePolarity,Positive*
G04*
G01*
G75*
%ADD13C,0.2540*%
%ADD14R,1.5500X1.3000*%
%ADD15R,2.0000X2.0000*%
%ADD16R,1.3500X0.8500*%
%ADD17R,0.9000X0.9000*%
%ADD18R,1.5000X0.9000*%
%ADD19R,0.9000X1.5000*%
%ADD20R,0.8500X1.3500*%
%ADD21R,1.2084X1.0121*%
%ADD27R,1.5500X1.5500*%
%ADD28C,1.5500*%
%ADD29C,1.0000*%
%ADD30C,2.0000*%
G36*
X486631Y179705D02*
X482393Y175467D01*
X481551Y174207D01*
X481255Y172720D01*
Y165214D01*
X480510Y164783D01*
X479106Y163380D01*
X478114Y161660D01*
X477600Y159743D01*
Y157757D01*
X478114Y155840D01*
X479106Y154120D01*
X480510Y152717D01*
X482230Y151724D01*
X484147Y151210D01*
X486133D01*
X488050Y151724D01*
X489770Y152717D01*
X491174Y154120D01*
X492166Y155840D01*
X492680Y157757D01*
Y159743D01*
X492166Y161660D01*
X491174Y163380D01*
X489770Y164783D01*
X489025Y165214D01*
Y171111D01*
X492409Y174495D01*
X499230D01*
Y161870D01*
Y147395D01*
X495200D01*
X493713Y147099D01*
X492453Y146257D01*
X486914Y140717D01*
X486083Y140940D01*
X484097D01*
X482180Y140426D01*
X480460Y139433D01*
X479057Y138030D01*
X478064Y136310D01*
X477550Y134393D01*
Y132407D01*
X478064Y130490D01*
X479057Y128770D01*
X480460Y127367D01*
X482180Y126374D01*
X484097Y125860D01*
X486083D01*
X488000Y126374D01*
X489720Y127367D01*
X491124Y128770D01*
X492116Y130490D01*
X492630Y132407D01*
Y134393D01*
X492407Y135224D01*
X496809Y139625D01*
X499230D01*
Y123770D01*
Y111070D01*
Y98370D01*
Y85670D01*
Y72970D01*
Y60270D01*
Y47570D01*
Y34870D01*
X514093D01*
X514692Y33750D01*
X514554Y33544D01*
X514456Y33308D01*
X514314Y33096D01*
X513184Y30366D01*
X513134Y30116D01*
X513036Y29881D01*
X512460Y26983D01*
Y26727D01*
X512410Y26477D01*
Y23523D01*
X512460Y23272D01*
Y23017D01*
X513036Y20119D01*
X513134Y19884D01*
X513184Y19634D01*
X514314Y16904D01*
X514456Y16692D01*
X514554Y16456D01*
X516195Y13999D01*
X516376Y13819D01*
X516517Y13607D01*
X518607Y11517D01*
X518819Y11376D01*
X518999Y11195D01*
X521456Y9554D01*
X521692Y9456D01*
X521904Y9315D01*
X524634Y8184D01*
X524884Y8134D01*
X525119Y8036D01*
X528017Y7460D01*
X528273D01*
X528523Y7410D01*
X531477D01*
X531727Y7460D01*
X531983D01*
X534881Y8036D01*
X535116Y8134D01*
X535366Y8184D01*
X538096Y9315D01*
X538308Y9456D01*
X538544Y9554D01*
X538767Y9703D01*
X539576Y8716D01*
X530860Y0D01*
X183526D01*
X183140Y1270D01*
X183145Y1273D01*
X192317Y10445D01*
X240280D01*
Y5290D01*
X260860D01*
Y10445D01*
X331830D01*
X333317Y10741D01*
X334577Y11583D01*
X356407Y33413D01*
X357580Y32927D01*
Y19370D01*
X485960D01*
Y39450D01*
X364103D01*
X363617Y40623D01*
X372317Y49323D01*
X373159Y50583D01*
X373455Y52070D01*
Y172502D01*
X373159Y173989D01*
X372317Y175249D01*
X358314Y189252D01*
X358800Y190425D01*
X404791D01*
X467285Y127931D01*
Y121920D01*
X467581Y120433D01*
X468423Y119173D01*
X477823Y109774D01*
X477600Y108943D01*
Y106957D01*
X478114Y105040D01*
X479106Y103320D01*
X480510Y101917D01*
X482230Y100924D01*
X484147Y100410D01*
X486133D01*
X488050Y100924D01*
X489770Y101917D01*
X491174Y103320D01*
X492166Y105040D01*
X492680Y106957D01*
Y108943D01*
X492166Y110860D01*
X491174Y112580D01*
X489770Y113983D01*
X488050Y114976D01*
X486133Y115490D01*
X484147D01*
X483316Y115267D01*
X475055Y123529D01*
Y129540D01*
X474759Y131027D01*
X473917Y132287D01*
X409147Y197057D01*
X407887Y197899D01*
X406400Y198195D01*
X344310D01*
Y205740D01*
X334270D01*
Y208280D01*
X344310D01*
Y212315D01*
X454021D01*
X486631Y179705D01*
D02*
G37*
G36*
X253793Y29003D02*
X255053Y28161D01*
X256540Y27865D01*
X338212D01*
X338698Y26692D01*
X330221Y18215D01*
X260860D01*
Y23370D01*
X240280D01*
Y18215D01*
X190708D01*
X189222Y17919D01*
X187961Y17077D01*
X182533Y11649D01*
X181360Y12135D01*
Y23370D01*
X160780D01*
Y10963D01*
X159798Y10158D01*
X159412Y10235D01*
X131688D01*
X131202Y11408D01*
X136894Y17100D01*
X137736Y18361D01*
X138032Y19847D01*
Y27959D01*
X142729D01*
Y34290D01*
X134147D01*
Y35560D01*
X132877D01*
Y43161D01*
X121995D01*
Y79671D01*
X136229Y93905D01*
X188891D01*
X253793Y29003D01*
D02*
G37*
G36*
X552450Y279400D02*
Y21590D01*
X546284Y15424D01*
X545297Y16233D01*
X545446Y16456D01*
X545544Y16692D01*
X545685Y16904D01*
X546816Y19634D01*
X546866Y19884D01*
X546964Y20119D01*
X547540Y23017D01*
Y23272D01*
X547590Y23523D01*
Y26477D01*
X547540Y26727D01*
Y26983D01*
X546964Y29881D01*
X546866Y30116D01*
X546816Y30366D01*
X545685Y33096D01*
X545544Y33308D01*
X545446Y33544D01*
X543805Y36001D01*
X543624Y36181D01*
X543483Y36393D01*
X541393Y38482D01*
X541181Y38624D01*
X541001Y38805D01*
X538544Y40446D01*
X538308Y40544D01*
X538096Y40685D01*
X535366Y41816D01*
X535116Y41866D01*
X534881Y41964D01*
X531983Y42540D01*
X531727D01*
X531477Y42590D01*
X528523D01*
X528273Y42540D01*
X528017D01*
X525119Y41964D01*
X524884Y41866D01*
X524634Y41816D01*
X521904Y40685D01*
X521692Y40544D01*
X521456Y40446D01*
X520430Y39761D01*
X519310Y40359D01*
Y47570D01*
Y60270D01*
Y72970D01*
Y85670D01*
Y98370D01*
Y111070D01*
Y123770D01*
Y139625D01*
X524510D01*
X525997Y139921D01*
X527257Y140763D01*
X529797Y143303D01*
X530639Y144563D01*
X530935Y146050D01*
Y272018D01*
X530639Y273505D01*
X529797Y274765D01*
X514795Y289767D01*
X513535Y290609D01*
X512048Y290905D01*
X99050D01*
X97563Y290609D01*
X96303Y289767D01*
X82601Y276065D01*
X81710D01*
X81335Y275990D01*
X71940D01*
Y257410D01*
X85520D01*
Y268556D01*
X85697Y268591D01*
X86957Y269433D01*
X100659Y283135D01*
X290202D01*
X290587Y281865D01*
X288999Y280805D01*
X288819Y280624D01*
X288607Y280483D01*
X286518Y278393D01*
X286376Y278181D01*
X286195Y278001D01*
X284554Y275544D01*
X284456Y275308D01*
X284314Y275096D01*
X283184Y272366D01*
X283134Y272116D01*
X283036Y271881D01*
X282460Y268983D01*
Y268727D01*
X282410Y268477D01*
Y265523D01*
X282460Y265272D01*
Y265017D01*
X283036Y262119D01*
X283134Y261884D01*
X283184Y261634D01*
X284314Y258904D01*
X284456Y258692D01*
X284554Y258456D01*
X286195Y255999D01*
X286376Y255819D01*
X286518Y255607D01*
X288607Y253517D01*
X288819Y253376D01*
X288999Y253195D01*
X289760Y252687D01*
X289375Y251417D01*
X144597D01*
X132047Y263967D01*
X130787Y264809D01*
X130610Y264844D01*
Y275990D01*
X117030D01*
Y257410D01*
X126425D01*
X126800Y257335D01*
X127691D01*
X140241Y244786D01*
X141501Y243944D01*
X142987Y243648D01*
X239004D01*
X239490Y242474D01*
X227123Y230107D01*
X226281Y228847D01*
X225985Y227361D01*
Y140712D01*
X226281Y139226D01*
X227123Y137966D01*
X244000Y121089D01*
Y115693D01*
Y115312D01*
X255270D01*
Y126582D01*
X249494D01*
X233755Y142322D01*
Y225752D01*
X242827Y234824D01*
X244000Y234338D01*
Y230293D01*
Y216103D01*
X244000D01*
Y215783D01*
X244000D01*
Y204893D01*
Y190702D01*
X263586D01*
X272886Y181403D01*
X274146Y180561D01*
X275632Y180265D01*
X307001D01*
X321103Y166163D01*
X322363Y165321D01*
X323850Y165025D01*
X324230D01*
Y149170D01*
Y136470D01*
Y123770D01*
Y117915D01*
X323057Y117429D01*
X320115Y120371D01*
Y152400D01*
X319819Y153887D01*
X318977Y155147D01*
X316447Y157677D01*
X315187Y158519D01*
X313700Y158815D01*
X309010D01*
Y161720D01*
X297115D01*
X296740Y161795D01*
X296365Y161720D01*
X290430D01*
Y148140D01*
X309010D01*
Y151045D01*
X312091D01*
X312345Y150791D01*
Y118762D01*
X312641Y117275D01*
X313483Y116015D01*
X321124Y108374D01*
X321103Y108157D01*
X313483Y100537D01*
X312641Y99277D01*
X312345Y97790D01*
Y72729D01*
X302831Y63215D01*
X260860D01*
Y68370D01*
X240280D01*
Y55163D01*
X239107Y54677D01*
X193247Y100537D01*
X191987Y101379D01*
X190500Y101675D01*
X134620D01*
X133133Y101379D01*
X131873Y100537D01*
X115363Y84027D01*
X114521Y82767D01*
X114225Y81280D01*
Y43161D01*
X109528D01*
Y27959D01*
X114225D01*
Y24469D01*
X112691Y22935D01*
X81619D01*
X79253Y25300D01*
X79470Y26855D01*
X81048Y27766D01*
X82964Y29682D01*
X84319Y32028D01*
X85020Y34645D01*
Y37355D01*
X84319Y39972D01*
X82964Y42318D01*
X81048Y44234D01*
X78702Y45589D01*
X76085Y46290D01*
X73375D01*
X70758Y45589D01*
X68412Y44234D01*
X66496Y42318D01*
X65141Y39972D01*
X64440Y37355D01*
Y34645D01*
X65141Y32028D01*
X66496Y29682D01*
X68412Y27766D01*
X70758Y26411D01*
X70845Y26388D01*
Y24330D01*
X71141Y22843D01*
X71983Y21583D01*
X75808Y17758D01*
X75322Y16585D01*
X62569D01*
X54714Y24440D01*
X55240Y25710D01*
X60020D01*
Y34730D01*
X49730D01*
Y36000D01*
X48460D01*
Y46290D01*
X40497D01*
Y49455D01*
X52070D01*
X53557Y49751D01*
X54817Y50593D01*
X85297Y81073D01*
X86139Y82333D01*
X86435Y83820D01*
Y122841D01*
X110067Y146473D01*
X110909Y147733D01*
X111205Y149220D01*
Y257410D01*
X114110D01*
Y275990D01*
X100530D01*
Y257410D01*
X103435D01*
Y160258D01*
X102262Y159772D01*
X66115Y195919D01*
Y257410D01*
X69020D01*
Y275990D01*
X55440D01*
Y257410D01*
X58345D01*
Y194310D01*
X58641Y192823D01*
X59483Y191563D01*
X101826Y149220D01*
X79803Y127197D01*
X78961Y125937D01*
X78665Y124450D01*
Y85429D01*
X50461Y57225D01*
X38100D01*
X36613Y56929D01*
X35353Y56087D01*
X33865Y54599D01*
X33023Y53339D01*
X32727Y51852D01*
Y26054D01*
X33023Y24567D01*
X33865Y23307D01*
X53569Y3603D01*
X54829Y2761D01*
X56316Y2465D01*
X157803D01*
X158995Y1273D01*
X159000Y1270D01*
X158614Y0D01*
X24130D01*
X3810Y20320D01*
X0D01*
Y278130D01*
X7921Y286051D01*
X8998Y285332D01*
X8184Y283366D01*
X8134Y283116D01*
X8036Y282881D01*
X7460Y279983D01*
Y279727D01*
X7410Y279477D01*
Y276523D01*
X7460Y276272D01*
Y276017D01*
X8036Y273119D01*
X8134Y272884D01*
X8184Y272634D01*
X9315Y269904D01*
X9456Y269692D01*
X9554Y269456D01*
X11195Y266999D01*
X11376Y266819D01*
X11517Y266607D01*
X13607Y264517D01*
X13819Y264376D01*
X13999Y264195D01*
X16456Y262554D01*
X16692Y262456D01*
X16904Y262314D01*
X19634Y261184D01*
X19884Y261134D01*
X20119Y261036D01*
X23017Y260460D01*
X23272D01*
X23523Y260410D01*
X26477D01*
X26727Y260460D01*
X26983D01*
X29881Y261036D01*
X30116Y261134D01*
X30366Y261184D01*
X33096Y262314D01*
X33308Y262456D01*
X33544Y262554D01*
X36001Y264195D01*
X36181Y264376D01*
X36393Y264517D01*
X38482Y266607D01*
X38624Y266819D01*
X38805Y266999D01*
X40446Y269456D01*
X40544Y269692D01*
X40685Y269904D01*
X41816Y272634D01*
X41866Y272884D01*
X41964Y273119D01*
X42540Y276017D01*
Y276272D01*
X42590Y276523D01*
Y279477D01*
X42540Y279727D01*
Y279983D01*
X41964Y282881D01*
X41866Y283116D01*
X41816Y283366D01*
X40685Y286096D01*
X40544Y286308D01*
X40446Y286544D01*
X38805Y289001D01*
X38624Y289181D01*
X38482Y289393D01*
X36393Y291483D01*
X36181Y291624D01*
X36001Y291805D01*
X33544Y293446D01*
X33308Y293544D01*
X33096Y293685D01*
X30366Y294816D01*
X30116Y294866D01*
X29881Y294963D01*
X26983Y295540D01*
X26727D01*
X26477Y295590D01*
X23523D01*
X23272Y295540D01*
X23017D01*
X20119Y294963D01*
X19884Y294866D01*
X19634Y294816D01*
X17668Y294002D01*
X16949Y295079D01*
X22860Y300990D01*
X530860D01*
X552450Y279400D01*
D02*
G37*
%LPC*%
G36*
X427810Y150850D02*
X385730D01*
Y136770D01*
Y122770D01*
Y108770D01*
X427810D01*
Y122770D01*
Y136770D01*
Y150850D01*
D02*
G37*
G36*
X181360Y68370D02*
X160780D01*
Y50290D01*
X181360D01*
Y68370D01*
D02*
G37*
G36*
X142729Y43161D02*
X135417D01*
Y36830D01*
X142729D01*
Y43161D01*
D02*
G37*
G36*
X39080Y241182D02*
X14000D01*
Y230293D01*
Y216103D01*
X39080D01*
Y241182D01*
D02*
G37*
G36*
X309010Y145220D02*
X300990D01*
Y139700D01*
X309010D01*
Y145220D01*
D02*
G37*
G36*
Y137160D02*
X300990D01*
Y131640D01*
X309010D01*
Y137160D01*
D02*
G37*
G36*
X298450Y145220D02*
X290430D01*
Y142315D01*
X280928D01*
X279441Y142019D01*
X278181Y141177D01*
X263586Y126582D01*
X257810D01*
Y115312D01*
X269080D01*
Y121089D01*
X282537Y134545D01*
X290430D01*
Y131640D01*
X298450D01*
Y138430D01*
Y145220D01*
D02*
G37*
G36*
X269080Y112773D02*
X244000D01*
Y102453D01*
X244000Y101503D01*
X244000Y100232D01*
Y90293D01*
Y76102D01*
X269080D01*
Y100232D01*
X269080Y101182D01*
X269080Y102453D01*
Y112773D01*
D02*
G37*
G36*
X39080Y101182D02*
X14000D01*
Y90293D01*
Y76102D01*
X39080D01*
Y101182D01*
D02*
G37*
G36*
X60020Y46290D02*
X51000D01*
Y37270D01*
X60020D01*
Y46290D01*
D02*
G37*
%LPD*%
D13*
X471170Y121920D02*
X485140Y107950D01*
X471170Y121920D02*
Y129540D01*
X334270Y194310D02*
X406400D01*
X471170Y129540D01*
X485140Y158750D02*
Y172720D01*
X490800Y178380D02*
X506040D01*
X485140Y172720D02*
X490800Y178380D01*
X506040D02*
X508000Y180340D01*
X331830Y14330D02*
X369570Y52070D01*
X250570Y14330D02*
X331830D01*
X334270Y194310D02*
X335540Y193040D01*
X349032D02*
X369570Y172502D01*
Y52070D02*
Y172502D01*
X335540Y193040D02*
X349032D01*
X341498Y31750D02*
X353060Y43312D01*
X190500Y97790D02*
X256540Y31750D01*
X341498D01*
X353060Y43312D02*
Y160020D01*
X296740Y157910D02*
X299720Y154930D01*
X293370Y207010D02*
X334270D01*
X280744Y219636D02*
X293370Y207010D01*
X280744Y219636D02*
Y229827D01*
X229870Y227361D02*
X244962Y242453D01*
X142987Y247533D02*
X298859D01*
X244962Y242453D02*
X268118D01*
X129300Y261220D02*
X142987Y247533D01*
X298859D02*
X330192Y216200D01*
X229870Y140712D02*
Y227361D01*
X268118Y242453D02*
X280744Y229827D01*
X334270Y168910D02*
X334348Y168988D01*
X344092D01*
X353060Y160020D01*
X495200Y143510D02*
X509270D01*
X485090Y133400D02*
X495200Y143510D01*
X508000Y180340D02*
X509270Y181610D01*
X159412Y6350D02*
X161742Y4020D01*
X180398D01*
X190708Y14330D02*
X250570D01*
X180398Y4020D02*
X190708Y14330D01*
X56316Y6350D02*
X159412D01*
X36612Y26054D02*
X56316Y6350D01*
X127000Y12700D02*
X134147Y19847D01*
Y35560D01*
X60960Y12700D02*
X127000D01*
X49730Y23930D02*
Y36000D01*
Y23930D02*
X60960Y12700D01*
X36612Y51852D02*
X38100Y53340D01*
X36612Y26054D02*
Y51852D01*
X38100Y53340D02*
X52070D01*
X82550Y83820D01*
Y124450D01*
X107320Y149220D01*
X118110Y35560D02*
Y81280D01*
X134620Y97790D01*
X190500D01*
X229870Y140712D02*
X256540Y114043D01*
X323850Y168910D02*
X334270D01*
X308610Y184150D02*
X323850Y168910D01*
X275632Y184150D02*
X308610D01*
X256540Y203242D02*
X275632Y184150D01*
X316230Y118762D02*
X326352Y108640D01*
X316230Y118762D02*
Y152400D01*
X313700Y154930D02*
X316230Y152400D01*
X331020Y105410D02*
Y105660D01*
X323850Y105410D02*
X331020D01*
X328040Y108640D02*
X331020Y105660D01*
X326352Y108640D02*
X328040D01*
X299720Y154930D02*
X313700D01*
X256540Y114043D02*
X280928Y138430D01*
X299720D01*
X316230Y71120D02*
Y97790D01*
X304440Y59330D02*
X316230Y71120D01*
X250570Y59330D02*
X304440D01*
X118110Y22860D02*
Y35560D01*
X80010Y19050D02*
X114300D01*
X118110Y22860D01*
X74730Y24330D02*
X80010Y19050D01*
X74730Y24330D02*
Y36000D01*
X316230Y97790D02*
X323850Y105410D01*
X491490Y180340D02*
X508000D01*
X123820Y264200D02*
Y266700D01*
Y264200D02*
X126800Y261220D01*
X129300D01*
X330192Y216200D02*
X455630D01*
X491490Y180340D01*
X107320Y149220D02*
Y266700D01*
X509270Y143510D02*
X524510D01*
X527050Y146050D01*
Y272018D01*
X99050Y287020D02*
X512048D01*
X527050Y272018D01*
X78730Y266700D02*
Y269200D01*
X81710Y272180D01*
X84210D01*
X99050Y287020D01*
X62230Y194310D02*
Y266700D01*
Y194310D02*
X107320Y149220D01*
D14*
X171070Y59330D02*
D03*
X250570D02*
D03*
X171070Y14330D02*
D03*
X250570D02*
D03*
D15*
X256540Y114043D02*
D03*
X26540Y228643D02*
D03*
Y88643D02*
D03*
X256540Y228643D02*
D03*
Y203242D02*
D03*
Y88643D02*
D03*
D16*
X299720Y138430D02*
D03*
Y154930D02*
D03*
D17*
X420770Y143810D02*
D03*
Y129810D02*
D03*
Y115810D02*
D03*
X392770D02*
D03*
Y129810D02*
D03*
Y143810D02*
D03*
X406770Y115810D02*
D03*
Y129810D02*
D03*
Y143810D02*
D03*
D18*
X509270Y207010D02*
D03*
Y194310D02*
D03*
Y181610D02*
D03*
Y168910D02*
D03*
Y156210D02*
D03*
Y143510D02*
D03*
Y130810D02*
D03*
Y118110D02*
D03*
Y105410D02*
D03*
Y92710D02*
D03*
Y80010D02*
D03*
Y67310D02*
D03*
Y54610D02*
D03*
Y41910D02*
D03*
X334270D02*
D03*
Y54610D02*
D03*
Y67310D02*
D03*
Y80010D02*
D03*
Y92710D02*
D03*
Y105410D02*
D03*
Y118110D02*
D03*
Y130810D02*
D03*
Y143510D02*
D03*
Y156210D02*
D03*
Y168910D02*
D03*
Y181610D02*
D03*
Y194310D02*
D03*
Y207010D02*
D03*
D19*
X478920Y29410D02*
D03*
X466220D02*
D03*
X453520D02*
D03*
X440820D02*
D03*
X428120D02*
D03*
X415420D02*
D03*
X402720D02*
D03*
X390020D02*
D03*
X377320D02*
D03*
X364620D02*
D03*
D20*
X107320Y266700D02*
D03*
X123820D02*
D03*
X62230D02*
D03*
X78730D02*
D03*
D21*
X134147Y35560D02*
D03*
X118110D02*
D03*
D27*
X49730Y36000D02*
D03*
D28*
X74730D02*
D03*
D29*
X485140Y107950D02*
D03*
X485090Y133400D02*
D03*
X485140Y158750D02*
D03*
D30*
X256540Y203242D02*
D03*
X26540Y88643D02*
D03*
Y228643D02*
D03*
X256540D02*
D03*
Y88643D02*
D03*
Y114043D02*
D03*
M02*
